<svg id="visual" viewBox="0 0 960 540" width="960" height="540" xmlns="http://www.w3.org/2000/svg" xmlns:xlink="http://www.w3.org/1999/xlink" version="1.1"><rect x="0" y="0" width="960" height="540" fill="#FFF"></rect><path d="M0 365L22.8 364.8C45.7 364.7 91.3 364.3 137 359.3C182.7 354.3 228.3 344.7 274 342.5C319.7 340.3 365.3 345.7 411.2 344C457 342.3 503 333.7 548.8 335.2C594.7 336.7 640.3 348.3 686 353.8C731.7 359.3 777.3 358.7 823 355.7C868.7 352.7 914.3 347.3 937.2 344.7L960 342L960 541L937.2 541C914.3 541 868.7 541 823 541C777.3 541 731.7 541 686 541C640.3 541 594.7 541 548.8 541C503 541 457 541 411.2 541C365.3 541 319.7 541 274 541C228.3 541 182.7 541 137 541C91.3 541 45.7 541 22.8 541L0 541Z" fill="#0166b3"></path><path d="M0 390L22.8 388.5C45.7 387 91.3 384 137 390.5C182.7 397 228.3 413 274 414.3C319.7 415.7 365.3 402.3 411.2 396C457 389.7 503 390.3 548.8 396.8C594.7 403.3 640.3 415.7 686 412.2C731.7 408.7 777.3 389.3 823 385.5C868.7 381.7 914.3 393.3 937.2 399.2L960 405L960 541L937.2 541C914.3 541 868.7 541 823 541C777.3 541 731.7 541 686 541C640.3 541 594.7 541 548.8 541C503 541 457 541 411.2 541C365.3 541 319.7 541 274 541C228.3 541 182.7 541 137 541C91.3 541 45.7 541 22.8 541L0 541Z" fill="#1b72b9"></path><path d="M0 400L22.8 405.8C45.7 411.7 91.3 423.3 137 426.3C182.7 429.3 228.3 423.7 274 417.2C319.7 410.7 365.3 403.3 411.2 406.5C457 409.7 503 423.3 548.8 431.7C594.7 440 640.3 443 686 440.2C731.7 437.3 777.3 428.7 823 424.8C868.7 421 914.3 422 937.2 422.5L960 423L960 541L937.2 541C914.3 541 868.7 541 823 541C777.3 541 731.7 541 686 541C640.3 541 594.7 541 548.8 541C503 541 457 541 411.2 541C365.3 541 319.7 541 274 541C228.3 541 182.7 541 137 541C91.3 541 45.7 541 22.8 541L0 541Z" fill="#2d7dbf"></path><path d="M0 485L22.8 483.3C45.7 481.7 91.3 478.3 137 473C182.7 467.7 228.3 460.3 274 458.7C319.7 457 365.3 461 411.2 462.7C457 464.3 503 463.7 548.8 458.8C594.7 454 640.3 445 686 442.5C731.7 440 777.3 444 823 448.5C868.7 453 914.3 458 937.2 460.5L960 463L960 541L937.2 541C914.3 541 868.7 541 823 541C777.3 541 731.7 541 686 541C640.3 541 594.7 541 548.8 541C503 541 457 541 411.2 541C365.3 541 319.7 541 274 541C228.3 541 182.7 541 137 541C91.3 541 45.7 541 22.8 541L0 541Z" fill="#3d89c5"></path><path d="M0 508L22.8 509C45.7 510 91.3 512 137 512.7C182.7 513.3 228.3 512.7 274 508.5C319.7 504.3 365.3 496.7 411.2 496.3C457 496 503 503 548.8 504.2C594.7 505.3 640.3 500.7 686 495.3C731.7 490 777.3 484 823 486C868.7 488 914.3 498 937.2 503L960 508L960 541L937.2 541C914.3 541 868.7 541 823 541C777.3 541 731.7 541 686 541C640.3 541 594.7 541 548.8 541C503 541 457 541 411.2 541C365.3 541 319.7 541 274 541C228.3 541 182.7 541 137 541C91.3 541 45.7 541 22.8 541L0 541Z" fill="#4d94ca"></path></svg>