<svg id="visual" viewBox="0 0 960 540" width="960" height="540" xmlns="http://www.w3.org/2000/svg" xmlns:xlink="http://www.w3.org/1999/xlink" version="1.1"><rect x="0" y="0" width="960" height="540" fill="#FFF"></rect><path d="M271 0L337 77L274 154L308 231L381 309L331 386L258 463L332 540L0 540L0 463L0 386L0 309L0 231L0 154L0 77L0 0Z" fill="#0166b3"></path><path d="M330 0L205 77L243 154L268 231L215 309L302 386L290 463L313 540L0 540L0 463L0 386L0 309L0 231L0 154L0 77L0 0Z" fill="#1b72b9"></path><path d="M251 0L218 77L227 154L201 231L200 309L182 386L162 463L183 540L0 540L0 463L0 386L0 309L0 231L0 154L0 77L0 0Z" fill="#2d7dbf"></path><path d="M132 0L103 77L108 154L103 231L185 309L143 386L114 463L96 540L0 540L0 463L0 386L0 309L0 231L0 154L0 77L0 0Z" fill="#3d89c5"></path><path d="M81 0L52 77L57 154L71 231L92 309L59 386L69 463L84 540L0 540L0 463L0 386L0 309L0 231L0 154L0 77L0 0Z" fill="#4d94ca"></path></svg>